<svg xmlns="http://www.w3.org/2000/svg" width="18.334" height="20.001" viewBox="0 0 18.334 20.001"><defs><style>.a{fill:#5868dd;}</style></defs><path class="a" d="M12.709,122.5H2.292A2.294,2.294,0,0,1,0,120.21V108.96a2.294,2.294,0,0,1,2.292-2.292h.417a.625.625,0,0,1,0,1.25H2.292A1.043,1.043,0,0,0,1.25,108.96V120.21a1.043,1.043,0,0,0,1.042,1.042H12.709a1.043,1.043,0,0,0,1.042-1.042v-.417a.625.625,0,1,1,1.25,0v.417A2.294,2.294,0,0,1,12.709,122.5Zm0,0" transform="translate(0 -102.501)"/><path class="a" d="M139.042,15h-8.751A2.294,2.294,0,0,1,128,12.709V2.292A2.294,2.294,0,0,1,130.292,0h8.751a2.294,2.294,0,0,1,2.292,2.292V12.709A2.294,2.294,0,0,1,139.042,15ZM130.292,1.25a1.043,1.043,0,0,0-1.042,1.042V12.709a1.043,1.043,0,0,0,1.042,1.042h8.751a1.043,1.043,0,0,0,1.042-1.042V2.292a1.043,1.043,0,0,0-1.042-1.042Zm0,0" transform="translate(-123)"/></svg>