<svg xmlns="http://www.w3.org/2000/svg" width="12.32" height="12.879" viewBox="0 0 12.32 12.879"><defs><style>.a{fill:#606574;}</style></defs><g transform="translate(-106.465 0)"><path class="a" d="M107.568,5.928h10.114a1.313,1.313,0,0,0,.976-.362.47.47,0,0,0-.066-.7l-5.119-4.6a1.387,1.387,0,0,0-1.625,0l-5.187,4.6a.47.47,0,0,0-.071.7A1.31,1.31,0,0,0,107.568,5.928Z" transform="translate(0 0)"/><path class="a" d="M117.682,274H107.568a1.341,1.341,0,0,0-.977.349.44.44,0,0,0,.071.673l5.187,4.417a1.435,1.435,0,0,0,1.625,0l5.119-4.417a.439.439,0,0,0,.066-.672A1.344,1.344,0,0,0,117.682,274Z" transform="translate(0 -266.808)"/></g></svg>