<svg xmlns="http://www.w3.org/2000/svg" width="20" height="20" viewBox="0 0 20 20"><g transform="translate(-0.001)"><g transform="translate(0.001)"><path d="M10,0A10,10,0,1,0,20,10,10,10,0,0,0,10,0Zm4.754,7.2-.95.95L11.871,6.213l-.733.733L13.071,8.88,8.329,13.621,6.4,11.688l-.733.733L7.6,14.355l-.473.473-.009-.009a.374.374,0,0,1-.239.172l-1.8.4a.375.375,0,0,1-.447-.448l.4-1.8A.375.375,0,0,1,5.2,12.9l-.009-.009,7.631-7.632a.287.287,0,0,1,.405,0l1.528,1.528A.287.287,0,0,1,14.754,7.2Z" transform="translate(-0.001 0)" fill="#fff"/></g></g></svg>