<svg xmlns="http://www.w3.org/2000/svg" width="18.75" height="15" viewBox="0 0 18.75 15"><g transform="translate(0 0)"><circle cx="1.5" cy="1.5" r="1.5" transform="translate(4.42 3.327)" fill="#0d0936"/><path d="M17.444,4H3.306A2.308,2.308,0,0,0,1,6.306V16.694A2.308,2.308,0,0,0,3.306,19H17.444a2.308,2.308,0,0,0,2.306-2.306V6.306A2.308,2.308,0,0,0,17.444,4ZM7.25,6.5A2.5,2.5,0,1,1,4.75,9,2.5,2.5,0,0,1,7.25,6.5Zm3.125,10a.625.625,0,0,1-.625-.625,2.5,2.5,0,1,0-5,0,.625.625,0,0,1-1.25,0,3.75,3.75,0,1,1,7.5,0A.625.625,0,0,1,10.375,16.5Zm6.25-1.25h-3.75a.625.625,0,0,1,0-1.25h3.75a.625.625,0,0,1,0,1.25Zm0-3.125h-3.75a.625.625,0,1,1,0-1.25h3.75a.625.625,0,1,1,0,1.25Zm0-3.125h-3.75a.625.625,0,1,1,0-1.25h3.75a.625.625,0,1,1,0,1.25Z" transform="translate(-1 -4)" fill="#0d0936"/></g></svg>