<svg xmlns="http://www.w3.org/2000/svg" width="18" height="16.5" viewBox="0 0 18 16.5"><g transform="translate(-1 -4)"><ellipse cx="1.5" cy="2" rx="1.5" ry="2" transform="translate(5.521 7.25)" fill="#fff"/><path d="M16.787,4H3.213A2.394,2.394,0,0,0,1,6.536V17.964A2.394,2.394,0,0,0,3.213,20.5H16.787A2.394,2.394,0,0,0,19,17.964V6.536A2.394,2.394,0,0,0,16.787,4ZM7,6.75A2.593,2.593,0,0,1,9.4,9.5,2.593,2.593,0,0,1,7,12.25,2.593,2.593,0,0,1,4.6,9.5,2.593,2.593,0,0,1,7,6.75Zm3,11a.648.648,0,0,1-.6-.687A2.593,2.593,0,0,0,7,14.312a2.593,2.593,0,0,0-2.4,2.75.648.648,0,0,1-.6.688.648.648,0,0,1-.6-.687A3.889,3.889,0,0,1,7,12.937a3.889,3.889,0,0,1,3.6,4.125A.648.648,0,0,1,10,17.75Zm6-1.375H12.4A.694.694,0,0,1,12.4,15H16a.694.694,0,0,1,0,1.375Zm0-3.437H12.4a.694.694,0,0,1,0-1.375H16a.694.694,0,0,1,0,1.375ZM16,9.5H12.4a.694.694,0,0,1,0-1.375H16A.694.694,0,0,1,16,9.5Z" transform="translate(0 0)" fill="#fff"/></g></svg>