<svg xmlns="http://www.w3.org/2000/svg" width="15.929" height="17.155" viewBox="0 0 15.929 17.155"><path d="M17.091,2H4.838A1.838,1.838,0,0,0,3,3.838v14.7a.613.613,0,0,0,1,.472l3.284-2.738,2.922,2.414a1.225,1.225,0,0,0,1.568,0l2.861-2.414,3.284,2.738a.612.612,0,0,0,1-.472V3.838A1.838,1.838,0,0,0,17.091,2ZM15.253,12.415H6.676a.613.613,0,0,1,0-1.225h8.577a.613.613,0,0,1,0,1.225Zm0-3.063H6.676a.613.613,0,1,1,0-1.225h8.577a.613.613,0,0,1,0,1.225Zm0-3.063H6.676a.613.613,0,0,1,0-1.225h8.577a.613.613,0,0,1,0,1.225Z" transform="translate(-3 -2)" fill="#0d0936"/></svg>