<svg xmlns="http://www.w3.org/2000/svg" width="18" height="18.87" viewBox="0 0 18 18.87"><g transform="translate(-3 -2)"><path d="M18.923,2H5.077A2.05,2.05,0,0,0,3,4.022V20.2a.673.673,0,0,0,.4.611.707.707,0,0,0,.737-.092L7.846,17.7l3.3,2.655a1.414,1.414,0,0,0,1.772,0L16.154,17.7l3.711,3.012a.717.717,0,0,0,.734.094A.673.673,0,0,0,21,20.2V4.022A2.05,2.05,0,0,0,18.923,2ZM16.846,13.456H7.154a.674.674,0,1,1,0-1.348h9.692a.674.674,0,1,1,0,1.348Zm0-3.37H7.154a.674.674,0,1,1,0-1.348h9.692a.674.674,0,1,1,0,1.348Zm0-3.37H7.154a.674.674,0,1,1,0-1.348h9.692a.674.674,0,1,1,0,1.348Z" fill="#fff"/></g></svg>