<svg xmlns="http://www.w3.org/2000/svg" width="12.066" height="9.082" viewBox="0 0 12.066 9.082"><defs><style>.a{fill:#606574;}</style></defs><g transform="translate(0 -7.434)"><path class="a" d="M22.591,47.1H14.522a.6.6,0,1,1,0-1.2H22.59a.6.6,0,0,1,0,1.2Z" transform="translate(-11.126 -30.741)"/><path class="a" d="M22.591,28.266H14.522a.6.6,0,1,1,0-1.2H22.59a.6.6,0,0,1,0,1.2Z" transform="translate(-11.126 -15.689)"/><path class="a" d="M22.591,9.435H14.522a.6.6,0,1,1,0-1.2H22.59a.6.6,0,0,1,0,1.2Z" transform="translate(-11.126 -0.637)"/><circle class="a" cx="0.809" cy="0.809" r="0.809" transform="translate(0 7.434)"/><circle class="a" cx="0.809" cy="0.809" r="0.809" transform="translate(0 11.167)"/><circle class="a" cx="0.809" cy="0.809" r="0.809" transform="translate(0 14.899)"/></g></svg>