<svg xmlns="http://www.w3.org/2000/svg" width="45.999" height="47.532" viewBox="0 0 45.999 47.532"><g transform="translate(27 -3)"><g transform="translate(-27 3)"><path d="M27.3,2.533H25.767V1.767a.767.767,0,1,0-1.533,0v.767H21.167V1.767a.767.767,0,1,0-1.533,0v.767H16.567V1.767a.767.767,0,1,0-1.533,0v.767H11.967V1.767a.767.767,0,0,0-1.533,0v.767H7.367V1.767a.767.767,0,1,0-1.533,0v.767H4.3A2.3,2.3,0,0,0,2,4.833V35.5a2.3,2.3,0,0,0,2.3,2.3h23a2.3,2.3,0,0,0,2.3-2.3V4.833A2.3,2.3,0,0,0,27.3,2.533ZM28.067,35.5a.767.767,0,0,1-.767.767H4.3a.767.767,0,0,1-.767-.767V4.833A.767.767,0,0,1,4.3,4.067H5.833v.767a.767.767,0,0,0,1.533,0V4.067h3.067v.767a.767.767,0,0,0,1.533,0V4.067h3.067v.767a.767.767,0,1,0,1.533,0V4.067h3.067v.767a.767.767,0,0,0,1.533,0V4.067h3.067v.767a.767.767,0,1,0,1.533,0V4.067H27.3a.767.767,0,0,1,.767.767Z" transform="translate(-2 -1)" fill="#e0e2eb"/><path d="M26.167,13H7.767a.767.767,0,0,0,0,1.533h18.4a.767.767,0,0,0,0-1.533Z" transform="translate(-3.167 -3.8)" fill="#e0e2eb"/><path d="M26.167,21H7.767a.767.767,0,0,0,0,1.533h18.4a.767.767,0,0,0,0-1.533Z" transform="translate(-3.167 -5.667)" fill="#e0e2eb"/><path d="M26.167,29H7.767a.767.767,0,1,0,0,1.533h18.4a.767.767,0,0,0,0-1.533Z" transform="translate(-3.167 -7.533)" fill="#e0e2eb"/><path d="M26.167,37H7.767a.767.767,0,1,0,0,1.533h18.4a.767.767,0,1,0,0-1.533Z" transform="translate(-3.167 -9.4)" fill="#e0e2eb"/><path d="M37.766,22.685,18.836,41.616a26.492,26.492,0,0,1,9.757,9.757l18.931-18.93a24.824,24.824,0,0,0-9.758-9.758Z" transform="translate(-5.928 -6.06)" fill="#695e95"/><path d="M17.484,49.175l-1.533,9.712a.767.767,0,0,0,.879.876l9.713-1.533a24.913,24.913,0,0,0-9.058-9.055Z" transform="translate(-5.253 -12.241)" fill="#695e95"/><path d="M56.015,18.959a6.907,6.907,0,0,0-9.758,0L45,20.218a26.494,26.494,0,0,1,9.757,9.757l1.259-1.259A6.908,6.908,0,0,0,56.015,18.959Z" transform="translate(-12.033 -4.72)" fill="#695e95"/></g></g></svg>
