<svg xmlns="http://www.w3.org/2000/svg" width="18" height="20.695" viewBox="0 0 18 20.695"><path d="M18.75,7.761H18V5.174C18,2.32,15.309,0,12,0S6,2.32,6,5.174V7.761H5.25A2.115,2.115,0,0,0,3,9.7v9.054A2.115,2.115,0,0,0,5.25,20.7h13.5A2.115,2.115,0,0,0,21,18.755V9.7A2.115,2.115,0,0,0,18.75,7.761ZM8,5.174a3.759,3.759,0,0,1,4-3.449,3.759,3.759,0,0,1,4,3.449V7.761H8Zm5,9.246v1.964a.939.939,0,0,1-1,.862.939.939,0,0,1-1-.862V14.419a1.7,1.7,0,0,1-1-1.485,1.88,1.88,0,0,1,2-1.725,1.88,1.88,0,0,1,2,1.725A1.7,1.7,0,0,1,13,14.419Z" transform="translate(-3)" fill="#fff"/></svg>