<svg xmlns="http://www.w3.org/2000/svg" width="12.569" height="10.708" viewBox="0 0 12.569 10.708"><defs><style>.a{fill:#606574;}</style></defs><g transform="translate(0 -68.267)"><g transform="translate(0 68.267)"><g transform="translate(0 0)"><path class="a" d="M11.222,68.267H1.347A1.494,1.494,0,0,0,0,69.873v7.5a1.494,1.494,0,0,0,1.347,1.606h9.875a1.494,1.494,0,0,0,1.347-1.606v-7.5A1.494,1.494,0,0,0,11.222,68.267Zm.449,9.1a.5.5,0,0,1-.449.535H1.347A.5.5,0,0,1,.9,77.369v-.314l1.8-2.142,1.478,1.763a.4.4,0,0,0,.635,0l3.723-4.44,3.142,3.748v1.385Zm0-2.9L8.846,71.1a.4.4,0,0,0-.635,0l-3.723,4.44L3.011,73.778a.4.4,0,0,0-.635,0L.9,75.541V69.873a.5.5,0,0,1,.449-.535h9.875a.5.5,0,0,1,.449.535v4.6Z" transform="translate(0 -68.267)"/></g></g><g transform="translate(2.693 70.557)"><g transform="translate(0 0)"><path class="a" d="M103.747,136.533a1.347,1.347,0,1,0,1.347,1.347A1.347,1.347,0,0,0,103.747,136.533Zm0,1.8a.449.449,0,1,1,.449-.449A.449.449,0,0,1,103.747,138.329Z" transform="translate(-102.4 -136.533)"/></g></g></g></svg>