<svg xmlns="http://www.w3.org/2000/svg" width="17.056" height="17.747" viewBox="0 0 17.056 17.747"><path d="M22.306,17.5v.555a.554.554,0,0,1-.163.392l-3.7,3.7a.554.554,0,0,1-.392.163H17.5V18.055a.559.559,0,0,1,.555-.555Z" transform="translate(-5.251 -4.56)" fill="#0d0936"/><path d="M15.1,5H9.771V6.664a1.245,1.245,0,1,1-2.487,0V5H1.954A1.994,1.994,0,0,0,0,7.033v9.983A1.994,1.994,0,0,0,1.954,19.05h9.771V14.8A1.271,1.271,0,0,1,12.969,13.5h4.086V7.033A1.994,1.994,0,0,0,15.1,5ZM9.949,15.722H3.376a.555.555,0,0,1,0-1.109H9.949a.555.555,0,0,1,0,1.109Zm3.731-2.958H3.376a.555.555,0,0,1,0-1.109h10.3a.555.555,0,0,1,0,1.109Zm0-2.958H3.376a.555.555,0,0,1,0-1.109h10.3a.555.555,0,0,1,0,1.109Z" transform="translate(0 -1.303)" fill="#0d0936"/><path d="M11.8,6.632a.555.555,0,0,1-.555-.555V3.3a.555.555,0,1,1,1.109,0V6.078A.555.555,0,0,1,11.8,6.632Z" transform="translate(-3.277 -0.717)" fill="#0d0936"/><path d="M11.479,2.958a1.479,1.479,0,1,1,1.479-1.479A1.48,1.48,0,0,1,11.479,2.958Z" transform="translate(-2.951)" fill="#0d0936"/></svg>