<svg xmlns="http://www.w3.org/2000/svg" width="18" height="19.521" viewBox="0 0 18 19.521"><path d="M22.787,17.5v.61a.609.609,0,0,1-.179.431l-4.067,4.067a.609.609,0,0,1-.431.179H17.5V18.11a.614.614,0,0,1,.61-.61Z" transform="translate(-4.787 -3.266)" fill="#fff"/><path d="M15.938,5H10.313V6.83A1.373,1.373,0,0,1,9,8.254,1.373,1.373,0,0,1,7.688,6.83V5H2.063A2.154,2.154,0,0,0,0,7.237V18.218a2.154,2.154,0,0,0,2.063,2.237H12.375V15.777a1.373,1.373,0,0,1,1.313-1.423H18V7.237A2.154,2.154,0,0,0,15.938,5ZM10.5,16.794H3.563a.612.612,0,0,1,0-1.22H10.5a.612.612,0,0,1,0,1.22Zm3.938-3.254H3.563a.612.612,0,0,1,0-1.22H14.438a.612.612,0,0,1,0,1.22Zm0-3.254H3.563a.612.612,0,0,1,0-1.22H14.438a.612.612,0,0,1,0,1.22Z" transform="translate(0 -0.933)" fill="#fff"/><path d="M11.86,7.02a.61.61,0,0,1-.61-.61V3.36a.61.61,0,0,1,1.22,0V6.41A.61.61,0,0,1,11.86,7.02Z" transform="translate(-2.86 -0.513)" fill="#fff"/><path d="M11.627,3.254a1.627,1.627,0,1,1,1.627-1.627A1.628,1.628,0,0,1,11.627,3.254Z" transform="translate(-2.627)" fill="#fff"/></svg>