<svg xmlns="http://www.w3.org/2000/svg" width="18" height="22.004" viewBox="0 0 18 22.004"><g transform="translate(0 0)"><path d="M92.153,10.6a4.872,4.872,0,0,0,3.621-1.553,5.219,5.219,0,0,0,1.5-3.747,5.22,5.22,0,0,0-1.5-3.747,5,5,0,0,0-7.241,0,5.22,5.22,0,0,0-1.5,3.747,5.219,5.219,0,0,0,1.5,3.747A4.873,4.873,0,0,0,92.153,10.6Zm0,0" transform="translate(-83.292 0)" fill="#fff"/><path d="M17.956,253.607a13.337,13.337,0,0,0-.175-1.39,11.134,11.134,0,0,0-.335-1.4,6.976,6.976,0,0,0-.563-1.3,4.91,4.91,0,0,0-.85-1.129,3.737,3.737,0,0,0-1.221-.782,4.145,4.145,0,0,0-1.558-.288,1.564,1.564,0,0,0-.845.365c-.253.168-.549.363-.88.578a4.993,4.993,0,0,1-1.138.512,4.339,4.339,0,0,1-2.785,0,4.982,4.982,0,0,1-1.138-.511c-.327-.213-.624-.408-.881-.579a1.562,1.562,0,0,0-.844-.365,4.14,4.14,0,0,0-1.558.288,3.734,3.734,0,0,0-1.221.782,4.91,4.91,0,0,0-.849,1.129,6.989,6.989,0,0,0-.563,1.3,11.161,11.161,0,0,0-.335,1.4,13.29,13.29,0,0,0-.175,1.391c-.029.421-.043.858-.043,1.3a3.692,3.692,0,0,0,1.064,2.764,3.787,3.787,0,0,0,2.742,1.02H14.194a3.787,3.787,0,0,0,2.742-1.02A3.69,3.69,0,0,0,18,254.907c0-.443-.015-.881-.044-1.3Zm0,0" transform="translate(0 -236.688)" fill="#fff"/></g></svg>