<svg xmlns="http://www.w3.org/2000/svg" width="15.169" height="18.181" viewBox="0 0 15.169 18.181"><path d="M91.411,8.758a4.237,4.237,0,0,0,3.1-1.283,4.237,4.237,0,0,0,1.283-3.1,4.238,4.238,0,0,0-1.283-3.1,4.378,4.378,0,0,0-6.192,0,4.237,4.237,0,0,0-1.283,3.1,4.237,4.237,0,0,0,1.283,3.1A4.238,4.238,0,0,0,91.411,8.758Zm0,0" transform="translate(-83.941 0)" fill="#0e0936"/><path d="M15.132,252.515a10.815,10.815,0,0,0-.147-1.149,9.05,9.05,0,0,0-.283-1.155,5.706,5.706,0,0,0-.475-1.077,4.065,4.065,0,0,0-.716-.933,3.157,3.157,0,0,0-1.029-.646,3.555,3.555,0,0,0-1.313-.238,1.333,1.333,0,0,0-.712.3c-.213.139-.463.3-.741.478a4.25,4.25,0,0,1-.959.423,3.725,3.725,0,0,1-2.347,0,4.241,4.241,0,0,1-.959-.423c-.276-.176-.526-.337-.742-.478a1.331,1.331,0,0,0-.711-.3,3.55,3.55,0,0,0-1.313.238,3.154,3.154,0,0,0-1.029.646,4.066,4.066,0,0,0-.716.933,5.716,5.716,0,0,0-.475,1.077,9.072,9.072,0,0,0-.282,1.155,10.778,10.778,0,0,0-.147,1.149c-.024.348-.036.709-.036,1.074a3.019,3.019,0,0,0,.9,2.284,3.228,3.228,0,0,0,2.311.843h8.754a3.227,3.227,0,0,0,2.31-.843,3.018,3.018,0,0,0,.9-2.284c0-.366-.012-.728-.037-1.074Zm0,0" transform="translate(0 -238.534)" fill="#0e0936"/></svg>